<?xml version="1.0" encoding="utf-8"?>
<!-- Generator: Adobe Illustrator 24.0.2, SVG Export Plug-In . SVG Version: 6.00 Build 0)  -->
<svg version="1.1" id="Camada_1" xmlns="http://www.w3.org/2000/svg" xmlns:xlink="http://www.w3.org/1999/xlink" x="0px" y="0px"
	 viewBox="0 0 110 92" style="enable-background:new 0 0 110 92;" xml:space="preserve">
<style type="text/css">
	.st0{fill:#111111;}
	.st1{fill:#FFFFFF;}
	.st2{fill:none;stroke:#111111;stroke-width:2;stroke-miterlimit:10;}
</style>
<polygon class="st0" points="91.99,65.58 65.99,77.58 54.99,87.58 43.99,77.58 17.99,65.58 18.79,64.2 45.99,73.58 54.99,79.58 
	63.99,73.58 91.19,64.2 "/>
<path class="st1" d="M96.99,5.58l-32,24c0,0-9-3-20,0l-32-24l16,41L18.79,64.2l27.2,9.38l9,6l9-6l27.2-9.38l-10.2-17.62L96.99,5.58z
	 M40.99,61.58l-5-7l7,3l4,6L40.99,61.58z M67.99,61.58l-6,2l4-6l7-3L67.99,61.58z"/>
<polygon class="st0" points="46.99,63.58 40.99,61.58 35.99,54.58 42.99,57.58 "/>
<polygon class="st0" points="72.99,54.58 67.99,61.58 61.99,63.58 65.99,57.58 "/>
<path class="st2" d="M54.99,87.58l11-10l26-12l-11-19l16-41l-32,24c0,0-9-3-20,0l-32-24l16,41l-11,19l26,12L54.99,87.58z"/>
</svg>
